<svg xmlns="http://www.w3.org/2000/svg" viewBox="0 0 23 23" height="23" width="23"><title>police_15.svg</title><rect fill="none" x="0" y="0" width="23" height="23"></rect><rect x="1" y="1" rx="10.5" ry="10.5" width="21" height="21" stroke="#999999" style="stroke-linejoin:round;stroke-miterlimit:4;" fill="#999999" stroke-width="2"></rect><rect x="1" y="1" width="21" height="21" rx="10.5" ry="10.5" fill="#030303"></rect><path fill="rgba(0,42,255,0.64)" transform="translate(4 4)" d="M5.36,0,4.29,1.07V2.14h6.42V1.07L9.64,0ZM4.29,3.21a2.62,2.62,0,0,0,0,.56C4.29,5.3,6,6.43,7.5,6.43s3.21-1.13,3.21-2.66V3.21Zm0,4.29c-1.52,0-2.13,2-2.15,3.21V15H3.79L9.64,7.5Zm7,0L5.39,15h7.47V10.71C12.86,9.51,12.57,7.5,11.25,7.5Z"></path></svg>